HIERARCHY
ROOT mixamorig:Hips
{
	OFFSET 0.000000 201.639420 0.000000
	CHANNELS 6 Xposition Yposition Zposition Xrotation Yrotation Zrotation
	JOINT mixamorig:Spine
	{
		OFFSET 0.006200 19.524994 -2.481800
		CHANNELS 3 Xrotation Yrotation Zrotation
		JOINT mixamorig:Spine1
		{
			OFFSET -0.000900 22.835007 -2.825400
			CHANNELS 3 Xrotation Yrotation Zrotation
			JOINT mixamorig:Spine2
			{
				OFFSET -0.020600 26.552490 -3.193300
				CHANNELS 3 Xrotation Yrotation Zrotation
				JOINT mixamorig:Neck
				{
					OFFSET -0.060000 30.701813 1.352200
					CHANNELS 3 Xrotation Yrotation Zrotation
					JOINT mixamorig:Head
					{
						OFFSET -0.087200 22.547607 3.670900
						CHANNELS 3 Xrotation Yrotation Zrotation
						JOINT mixamorig:HeadTop_End
						{
							OFFSET -0.830600 40.355194 7.893500
							CHANNELS 3 Xrotation Yrotation Zrotation
							End Site
							{
								OFFSET 0.000000 30.592346 0.000000
							}
						}
						JOINT mixamorig:RightEye
						{
							OFFSET -6.302100 18.118591 16.197100
							CHANNELS 3 Xrotation Yrotation Zrotation
							End Site
							{
								OFFSET 0.000000 30.592346 0.000000
							}
						}
						JOINT mixamorig:LeftEye
						{
							OFFSET 6.741500 18.382690 16.401899
							CHANNELS 3 Xrotation Yrotation Zrotation
							End Site
							{
								OFFSET 0.000000 30.592346 0.000000
							}
						}
					}
				}
				JOINT mixamorig:LeftShoulder
				{
					OFFSET 11.924900 18.230499 1.425400
					CHANNELS 3 Xrotation Yrotation Zrotation
					JOINT mixamorig:LeftArm
					{
						OFFSET 25.435989 -0.697632 -5.229300
						CHANNELS 3 Xrotation Yrotation Zrotation
						JOINT mixamorig:LeftForeArm
						{
							OFFSET 54.684776 0.000000 0.000000
							CHANNELS 3 Xrotation Yrotation Zrotation
							JOINT mixamorig:LeftHand
							{
								OFFSET 55.098175 0.000000 0.000000
								CHANNELS 3 Xrotation Yrotation Zrotation
								JOINT mixamorig:LeftHandMiddle1
								{
									OFFSET 23.369751 0.000000 0.000000
									CHANNELS 3 Xrotation Yrotation Zrotation
									JOINT mixamorig:LeftHandMiddle2
									{
										OFFSET 6.378677 0.000000 0.000000
										CHANNELS 3 Xrotation Yrotation Zrotation
										JOINT mixamorig:LeftHandMiddle3
										{
											OFFSET 6.148331 0.000000 0.000000
											CHANNELS 3 Xrotation Yrotation Zrotation
											JOINT mixamorig:LeftHandMiddle4
											{
												OFFSET 6.582504 0.000000 0.000000
												CHANNELS 3 Xrotation Yrotation Zrotation
												End Site
												{
													OFFSET -1.168900 6.395691 1.028606
												}
											}
										}
									}
								}
								JOINT mixamorig:LeftHandThumb1
								{
									OFFSET 7.235672 -3.848206 5.434273
									CHANNELS 3 Xrotation Yrotation Zrotation
									JOINT mixamorig:LeftHandThumb2
									{
										OFFSET 6.568451 -3.792297 3.792300
										CHANNELS 3 Xrotation Yrotation Zrotation
										JOINT mixamorig:LeftHandThumb3
										{
											OFFSET 6.063080 -3.500519 3.500518
											CHANNELS 3 Xrotation Yrotation Zrotation
											JOINT mixamorig:LeftHandThumb4
											{
												OFFSET 4.793182 -2.767334 2.767349
												CHANNELS 3 Xrotation Yrotation Zrotation
												End Site
												{
													OFFSET 0.101639 6.054260 1.275483
												}
											}
										}
									}
								}
								JOINT mixamorig:LeftHandIndex1
								{
									OFFSET 23.101074 -0.309540 4.992809
									CHANNELS 3 Xrotation Yrotation Zrotation
									JOINT mixamorig:LeftHandIndex2
									{
										OFFSET 6.226883 0.000000 0.000000
										CHANNELS 3 Xrotation Yrotation Zrotation
										JOINT mixamorig:LeftHandIndex3
										{
											OFFSET 6.094330 0.000000 0.000000
											CHANNELS 3 Xrotation Yrotation Zrotation
											JOINT mixamorig:LeftHandIndex4
											{
												OFFSET 5.482605 0.000000 0.000000
												CHANNELS 3 Xrotation Yrotation Zrotation
												End Site
												{
													OFFSET -1.427902 5.233032 0.797164
												}
											}
										}
									}
								}
								JOINT mixamorig:LeftHandRing1
								{
									OFFSET 22.299240 0.021149 -3.964172
									CHANNELS 3 Xrotation Yrotation Zrotation
									JOINT mixamorig:LeftHandRing2
									{
										OFFSET 6.321869 0.000000 0.000000
										CHANNELS 3 Xrotation Yrotation Zrotation
										JOINT mixamorig:LeftHandRing3
										{
											OFFSET 5.899796 0.000000 0.000000
											CHANNELS 3 Xrotation Yrotation Zrotation
											JOINT mixamorig:LeftHandRing4
											{
												OFFSET 6.517899 0.000000 0.000000
												CHANNELS 3 Xrotation Yrotation Zrotation
												End Site
												{
													OFFSET -1.637299 6.232208 0.980890
												}
											}
										}
									}
								}
								JOINT mixamorig:LeftHandPinky1
								{
									OFFSET 20.463791 -0.302338 -8.562233
									CHANNELS 3 Xrotation Yrotation Zrotation
									JOINT mixamorig:LeftHandPinky2
									{
										OFFSET 6.908646 0.000000 0.000000
										CHANNELS 3 Xrotation Yrotation Zrotation
										JOINT mixamorig:LeftHandPinky3
										{
											OFFSET 4.622849 0.000000 0.000000
											CHANNELS 3 Xrotation Yrotation Zrotation
											JOINT mixamorig:LeftHandPinky4
											{
												OFFSET 5.216080 0.000000 0.000000
												CHANNELS 3 Xrotation Yrotation Zrotation
												End Site
												{
													OFFSET -0.606308 5.116241 0.814926
												}
											}
										}
									}
								}
							}
						}
					}
				}
				JOINT mixamorig:RightShoulder
				{
					OFFSET -12.001300 18.284088 1.348900
					CHANNELS 3 Xrotation Yrotation Zrotation
					JOINT mixamorig:RightArm
					{
						OFFSET -25.308500 -0.751312 -5.164599
						CHANNELS 3 Xrotation Yrotation Zrotation
						JOINT mixamorig:RightForeArm
						{
							OFFSET -54.684429 0.000000 0.000000
							CHANNELS 3 Xrotation Yrotation Zrotation
							JOINT mixamorig:RightHand
							{
								OFFSET -55.150291 0.000000 0.000000
								CHANNELS 3 Xrotation Yrotation Zrotation
								JOINT mixamorig:RightHandMiddle1
								{
									OFFSET -23.317566 0.000000 0.000000
									CHANNELS 3 Xrotation Yrotation Zrotation
									JOINT mixamorig:RightHandMiddle2
									{
										OFFSET -6.378403 0.000000 0.000000
										CHANNELS 3 Xrotation Yrotation Zrotation
										JOINT mixamorig:RightHandMiddle3
										{
											OFFSET -6.148193 0.000000 0.000000
											CHANNELS 3 Xrotation Yrotation Zrotation
											JOINT mixamorig:RightHandMiddle4
											{
												OFFSET -6.583389 0.000000 0.000000
												CHANNELS 3 Xrotation Yrotation Zrotation
												End Site
												{
													OFFSET 1.171692 6.395905 1.029786
												}
											}
										}
									}
								}
								JOINT mixamorig:RightHandThumb1
								{
									OFFSET -7.190521 -3.860474 5.435846
									CHANNELS 3 Xrotation Yrotation Zrotation
									JOINT mixamorig:RightHandThumb2
									{
										OFFSET -6.567429 -3.791718 3.791708
										CHANNELS 3 Xrotation Yrotation Zrotation
										JOINT mixamorig:RightHandThumb3
										{
											OFFSET -6.062469 -3.500153 3.500166
											CHANNELS 3 Xrotation Yrotation Zrotation
											JOINT mixamorig:RightHandThumb4
											{
												OFFSET -4.792618 -2.767029 2.767022
												CHANNELS 3 Xrotation Yrotation Zrotation
												End Site
												{
													OFFSET -0.100327 6.053253 1.276754
												}
											}
										}
									}
								}
								JOINT mixamorig:RightHandIndex1
								{
									OFFSET -23.048981 -0.310791 4.992554
									CHANNELS 3 Xrotation Yrotation Zrotation
									JOINT mixamorig:RightHandIndex2
									{
										OFFSET -6.227539 0.000000 0.000000
										CHANNELS 3 Xrotation Yrotation Zrotation
										JOINT mixamorig:RightHandIndex3
										{
											OFFSET -6.095047 0.000000 0.000000
											CHANNELS 3 Xrotation Yrotation Zrotation
											JOINT mixamorig:RightHandIndex4
											{
												OFFSET -5.484772 0.000000 0.000000
												CHANNELS 3 Xrotation Yrotation Zrotation
												End Site
												{
													OFFSET 1.420593 5.237305 0.797056
												}
											}
										}
									}
								}
								JOINT mixamorig:RightHandRing1
								{
									OFFSET -22.246323 0.020569 -3.963762
									CHANNELS 3 Xrotation Yrotation Zrotation
									JOINT mixamorig:RightHandRing2
									{
										OFFSET -6.322128 0.000000 0.000000
										CHANNELS 3 Xrotation Yrotation Zrotation
										JOINT mixamorig:RightHandRing3
										{
											OFFSET -5.900024 0.000000 0.000000
											CHANNELS 3 Xrotation Yrotation Zrotation
											JOINT mixamorig:RightHandRing4
											{
												OFFSET -6.518356 0.000000 0.000000
												CHANNELS 3 Xrotation Yrotation Zrotation
												End Site
												{
													OFFSET 1.636398 6.232697 0.982186
												}
											}
										}
									}
								}
								JOINT mixamorig:RightHandPinky1
								{
									OFFSET -20.411011 -0.303314 -8.561701
									CHANNELS 3 Xrotation Yrotation Zrotation
									JOINT mixamorig:RightHandPinky2
									{
										OFFSET -6.907349 0.000000 0.000000
										CHANNELS 3 Xrotation Yrotation Zrotation
										JOINT mixamorig:RightHandPinky3
										{
											OFFSET -4.623840 0.000000 0.000000
											CHANNELS 3 Xrotation Yrotation Zrotation
											JOINT mixamorig:RightHandPinky4
											{
												OFFSET -5.218353 0.000000 0.000000
												CHANNELS 3 Xrotation Yrotation Zrotation
												End Site
												{
													OFFSET 0.602097 5.118835 0.816273
												}
											}
										}
									}
								}
							}
						}
					}
				}
			}
		}
	}
	JOINT mixamorig:LeftUpLeg
	{
		OFFSET 18.168400 -13.561905 -0.039000
		CHANNELS 3 Xrotation Yrotation Zrotation
		JOINT mixamorig:LeftLeg
		{
			OFFSET 0.577358 -80.825211 -3.695000
			CHANNELS 3 Xrotation Yrotation Zrotation
			JOINT mixamorig:LeftFoot
			{
				OFFSET -0.577356 -83.370262 -6.520700
				CHANNELS 3 Xrotation Yrotation Zrotation
				JOINT mixamorig:LeftToeBase
				{
					OFFSET 0.750401 -20.798306 25.135401
					CHANNELS 3 Xrotation Yrotation Zrotation
					JOINT mixamorig:LeftToe_End
					{
						OFFSET -0.000500 0.001200 19.917799
						CHANNELS 3 Xrotation Yrotation Zrotation
						End Site
						{
							OFFSET 0.000000 19.917805 0.000000
						}
					}
				}
			}
		}
	}
	JOINT mixamorig:RightUpLeg
	{
		OFFSET -18.162500 -13.585098 -0.041000
		CHANNELS 3 Xrotation Yrotation Zrotation
		JOINT mixamorig:RightLeg
		{
			OFFSET -0.595024 -80.945297 -3.631900
			CHANNELS 3 Xrotation Yrotation Zrotation
			JOINT mixamorig:RightFoot
			{
				OFFSET 0.595024 -83.218193 -6.561200
				CHANNELS 3 Xrotation Yrotation Zrotation
				JOINT mixamorig:RightToeBase
				{
					OFFSET -0.753601 -20.807106 25.115000
					CHANNELS 3 Xrotation Yrotation Zrotation
					JOINT mixamorig:RightToe_End
					{
						OFFSET 0.000299 0.001700 19.918200
						CHANNELS 3 Xrotation Yrotation Zrotation
						End Site
						{
							OFFSET 0.000000 19.918203 0.000000
						}
					}
				}
			}
		}
	}
}
MOTION
Frames: 5
Frame Time: 0.033333
-3.324016 194.088150 6.660000 -20.033978 -32.574757 -3.313737 4.177970 0.844871 2.534889 9.770466 0.937230 3.586173 9.711452 0.828599 3.586289 -5.652185 7.263396 -6.589410 -3.535923 -6.321488 11.064651 -0.000000 0.000002 -0.000000 -0.000000 0.000002 -0.000000 -0.000000 0.000002 -0.000000 -37.420732 2.251141 1.943731 -16.328821 -26.278314 -41.844717 0.000025 -69.615897 0.000030 -80.342627 7.886992 4.422438 -0.325620 -0.498405 -7.092436 3.906383 5.519490 -70.556578 0.520000 2.414855 -24.300830 -0.000001 0.000000 -0.000004 1.568005 0.456383 2.719343 19.473185 -1.474877 7.636909 -4.536186 -9.613104 1.492974 -0.000002 0.000002 -0.000001 -0.430041 -2.975914 -5.349286 2.933692 5.074057 -60.049131 0.747845 2.865954 -29.243527 -0.000000 -0.000001 -0.000002 0.847657 5.293513 -27.829828 2.288672 4.644565 -52.445597 1.466922 3.878608 -41.421802 -0.000003 -0.000002 0.000001 2.644121 8.237662 -31.099094 2.412064 4.736552 -53.954471 1.156585 3.496324 -36.599306 -0.000001 0.000001 -0.000002 -36.294546 -19.732072 1.200005 -46.621871 63.494777 103.668925 0.000312 83.870557 -0.000343 -49.088870 16.031852 -5.720382 2.107873 -6.190770 48.882014 6.196915 -4.395813 109.325927 0.227423 -1.438995 17.960923 0.000003 0.000001 -0.000001 8.445328 -5.064760 11.035123 21.775637 -18.186475 -18.198296 -0.566982 -49.805634 -32.387845 0.000000 -0.000001 -0.000002 0.033089 4.159342 0.395728 0.189760 -1.317161 16.394672 0.058657 -0.737554 9.092596 0.000003 0.000002 0.000002 -2.994879 -2.194126 52.192921 5.327473 -4.608800 98.284346 1.982458 -3.813873 54.918279 -0.000002 0.000002 -0.000000 -3.662341 -4.091845 69.217260 3.804117 -4.578540 79.434007 2.938724 -4.329160 68.325224 0.000000 -0.000001 -0.000002 -5.437058 41.568548 14.814054 18.239042 2.902317 -2.257674 3.578179 -2.775032 -2.522248 -0.057603 -0.000001 -0.000001 0.000000 0.000001 0.000000 11.809846 0.304145 -11.969127 29.025760 4.609264 -0.553417 -22.674597 -25.560796 3.453605 -2.893433 0.000006 0.000001 -0.000000 0.000001 -0.000000 
-3.852775 193.962296 6.163071 -20.637517 -30.970759 -3.170284 3.994271 1.091351 2.543466 9.482866 1.389502 3.458485 9.410960 1.252250 3.444073 -4.960943 7.007842 -6.485805 -2.318362 -7.752640 12.284700 0.000000 0.000000 -0.000000 0.000000 0.000000 -0.000000 0.000000 0.000000 -0.000000 -37.535004 1.555473 4.360989 -13.935953 -30.888185 -40.938627 0.000052 -69.740377 0.000041 -69.139123 5.919663 9.768911 0.085759 2.865152 -5.021553 2.101634 4.495059 -50.098632 0.189049 1.477708 -14.579968 -0.000002 0.000001 0.000001 1.567983 0.456388 2.719331 19.473187 -1.474871 7.636924 -4.536178 -9.613111 1.492974 0.000000 -0.000002 -0.000001 0.360154 -1.821201 4.083028 1.634037 4.059719 -43.835519 0.591330 2.566823 -25.941996 0.000001 0.000001 -0.000000 0.587066 4.791237 -22.073756 2.035421 4.439012 -49.248290 0.552105 2.484682 -25.052236 0.000000 0.000001 0.000000 2.735316 8.963576 -26.990066 1.885540 4.305698 -47.282630 0.714876 2.806399 -28.577926 0.000000 0.000000 0.000001 -36.293610 -19.760586 1.189480 -42.542632 63.238283 99.470941 0.000607 83.491966 -0.000596 -47.942549 14.061682 -7.490871 2.750715 -6.765685 48.381481 6.254479 -4.375263 110.078648 0.215147 -1.400607 17.465818 -0.000001 -0.000003 0.000001 8.445315 -5.064779 11.035117 21.775633 -18.186483 -18.198295 -0.566977 -49.805627 -32.387842 0.000000 0.000000 -0.000001 -0.039244 4.332990 1.025409 0.191562 -1.323288 16.473158 0.061218 -0.753414 9.289819 -0.000000 0.000001 -0.000000 -3.072567 -2.245173 53.004334 5.347674 -4.605810 98.535888 1.962528 -3.799819 54.618199 -0.000003 -0.000002 0.000001 -3.664732 -4.089860 69.209214 3.791546 -4.576190 79.276640 2.905020 -4.315658 67.878010 -0.000004 -0.000000 0.000001 -4.953441 41.273365 14.680730 18.038108 2.947866 -2.094431 3.987357 -4.122723 -2.396329 -0.103362 0.000003 -0.000000 0.000000 0.000001 0.000000 12.916339 0.036746 -11.453327 28.985178 4.190676 -0.451225 -23.054648 -26.631683 2.987891 -2.663164 -0.000018 0.000001 0.000000 0.000002 0.000000 
-4.391162 193.812210 5.590157 -21.184487 -28.793308 -2.898201 3.848163 1.308581 2.567561 9.272686 1.815717 3.352333 9.177446 1.720020 3.310815 -4.227771 6.773110 -6.505707 -1.683965 -9.277485 13.453728 -0.000001 -0.000001 0.000000 -0.000001 -0.000001 0.000000 -0.000001 -0.000001 0.000000 -37.870035 2.309686 5.478095 -13.893373 -33.960189 -42.760208 -0.000004 -72.332489 0.000010 -56.525375 6.113281 13.049121 0.301155 5.308336 -4.908495 1.140442 3.474512 -36.333813 0.073319 0.924915 -9.064129 0.000002 0.000000 -0.000000 1.567991 0.456383 2.719342 19.473194 -1.474894 7.636927 -4.536186 -9.613105 1.492968 -0.000002 0.000001 -0.000000 0.479349 -0.601103 9.435141 0.926586 3.163719 -32.641225 0.509620 2.391759 -24.053474 -0.000002 0.000000 0.000002 0.464683 4.539605 -17.170421 1.894109 4.313585 -47.396756 1.415928 3.820159 -40.662100 -0.000000 0.000000 -0.000003 2.667355 9.379739 -24.043833 1.349803 3.741976 -39.659367 0.493757 2.355937 -23.670466 -0.000002 0.000001 -0.000000 -36.293122 -19.786081 1.179453 -37.488091 62.692490 94.236509 0.000518 83.720730 -0.000522 -46.969435 10.120061 -9.607723 3.279925 -7.245347 48.137025 6.290835 -4.361835 110.556010 0.206996 -1.374374 17.128721 0.000001 0.000002 0.000000 8.445327 -5.064773 11.035126 21.775635 -18.186495 -18.198305 -0.566976 -49.805623 -32.387811 -0.000001 0.000000 0.000001 -0.016685 4.372140 0.829075 0.193358 -1.329370 16.551007 0.063548 -0.767563 9.465840 -0.000002 -0.000005 0.000000 -3.120173 -2.339087 53.949755 5.359381 -4.604049 98.681740 1.951121 -3.791715 54.445695 -0.000004 -0.000002 -0.000002 -3.672673 -4.061498 69.021759 3.776334 -4.573292 79.086036 2.879951 -4.305411 67.544472 0.000001 0.000001 -0.000001 -4.697323 40.801504 14.599241 17.956719 2.971012 -1.871781 4.425631 -5.864846 -2.162300 -0.126909 0.000001 -0.000000 -0.000000 0.000001 0.000000 14.179641 -0.363812 -10.775009 28.806558 3.529910 -0.195961 -23.454946 -27.893007 2.432512 -2.409302 0.000002 0.000000 -0.000000 -0.000001 0.000000 
-4.910767 193.631302 4.909950 -21.660360 -26.165428 -2.445095 3.687904 1.518151 2.600297 9.066084 2.269099 3.256684 9.042243 2.143130 3.209179 -3.338195 6.555469 -6.709323 -1.181720 -10.967908 14.246112 -0.000000 0.000000 -0.000000 -0.000000 0.000000 -0.000000 -0.000000 0.000000 -0.000000 -38.102214 2.487295 7.092947 -13.730796 -35.321886 -45.243972 0.000030 -76.363878 0.000026 -46.071115 5.059505 14.816193 0.333629 5.691648 -4.862769 1.011974 3.292990 -34.157175 0.059535 0.834103 -8.167597 -0.000001 0.000002 0.000001 1.567993 0.456397 2.719344 19.473184 -1.474887 7.636920 -4.536175 -9.613104 1.492980 0.000003 0.000000 0.000002 0.475812 -0.418371 10.305381 0.831548 3.010432 -30.876799 0.496912 2.363083 -23.746888 -0.000002 -0.000000 0.000000 0.390146 4.445486 -12.855968 1.815599 4.240258 -46.344022 1.543412 3.963394 -42.540074 0.000003 0.000002 -0.000002 2.653763 9.448551 -23.586996 0.874368 3.080765 -31.682215 0.461868 2.281881 -22.882459 -0.000001 -0.000001 0.000002 -36.399120 -19.556298 1.145902 -31.731259 61.025275 88.852982 -0.000689 84.371879 0.000678 -45.407473 6.283786 -11.494662 3.675248 -7.590566 48.238443 6.305382 -4.356375 110.747337 0.202737 -1.360496 16.950247 0.000001 -0.000000 -0.000001 8.445321 -5.064774 11.035111 21.775630 -18.186483 -18.198303 -0.566973 -49.805616 -32.387825 -0.000002 0.000002 -0.000000 0.122539 4.244710 -0.393913 0.195143 -1.335373 16.627870 0.065029 -0.776366 9.575527 0.000001 0.000000 -0.000002 -3.124505 -2.489338 55.078007 5.362169 -4.603611 98.716198 1.949248 -3.790390 54.417674 -0.000002 -0.000000 -0.000002 -3.687769 -3.997545 68.592694 3.755122 -4.569164 78.819720 2.867334 -4.300184 67.376217 -0.000002 0.000002 -0.000003 -4.588746 40.194045 14.453908 17.917441 2.942465 -1.634644 4.938735 -7.871860 -1.793669 -0.124153 0.000003 -0.000001 0.000000 0.000000 0.000000 15.457915 -0.807507 -9.960350 28.611971 2.892050 0.140730 -23.952937 -29.573152 1.699997 -2.319134 -0.000006 -0.000001 -0.000000 0.000001 0.000000 
-5.344553 193.395294 4.071953 -22.109493 -23.266486 -1.818789 3.522549 1.706129 2.646634 8.886903 2.725324 3.172574 9.012418 2.487798 3.129676 -2.375417 6.353364 -6.996353 -0.561622 -12.603180 14.513228 -0.000000 0.000002 -0.000000 -0.000000 0.000002 -0.000000 -0.000000 0.000002 -0.000000 -38.342650 2.496982 8.058270 -17.099599 -39.270080 -48.772598 0.000041 -72.955791 0.000039 -40.320611 2.361179 15.610920 0.296107 5.249366 -4.915564 1.160845 3.502012 -36.668741 0.075547 0.938856 -9.202077 -0.000001 0.000001 -0.000002 1.567983 0.456388 2.719340 19.473192 -1.474872 7.636916 -4.536189 -9.613108 1.492961 0.000001 -0.000001 -0.000003 0.479286 -0.629256 9.301288 0.941627 3.187037 -32.912728 0.511587 2.396160 -24.100649 0.000001 -0.000000 -0.000001 0.326248 4.438193 -9.230972 1.773590 4.199874 -45.773076 1.396756 3.797750 -40.373238 -0.000002 0.000001 -0.000002 2.669309 9.369179 -24.114097 0.519833 2.414465 -24.296738 0.498752 2.367288 -23.791692 0.000002 0.000000 -0.000002 -36.736674 -18.802131 1.064350 -26.074041 57.378493 84.855306 -0.001989 85.289221 0.001981 -42.407162 3.856051 -12.347864 4.033660 -7.897342 48.384855 6.309551 -4.354782 110.802286 0.200445 -1.352977 16.853639 -0.000001 -0.000003 -0.000001 8.445325 -5.064765 11.035100 21.775635 -18.186483 -18.198301 -0.566975 -49.805634 -32.387825 0.000002 -0.000000 0.000000 0.180725 3.991316 -0.971333 0.179426 -1.281553 15.939305 0.063071 -0.764578 9.428753 -0.000003 0.000001 -0.000001 -3.115425 -2.657912 56.289092 5.359371 -4.604041 98.681303 1.952969 -3.793032 54.473754 0.000000 -0.000000 -0.000001 -3.703618 -3.927049 68.120045 3.733099 -4.564755 78.543255 2.857997 -4.296319 67.251777 -0.000002 0.000001 0.000002 -4.618787 39.571883 13.955014 17.914037 1.413333 -1.007977 5.480684 -8.566999 -1.554666 -0.116594 -0.000009 0.000002 0.000000 0.000001 0.000000 16.608589 -1.116525 -9.035590 28.622277 0.264959 0.338715 -24.044463 -29.826364 1.937854 -2.219420 0.000015 -0.000000 0.000000 0.000001 -0.000000 
